Coordinates
version=1
nRows=6
nColumns=107
inDegrees=yes

Units are S.I. units (second, meters, Newtons, ...)
If the header above contains a line with 'inDegrees', this indicates whether rotational values are in degrees (yes) or radians (no).

endheader
time	sternoclavicular_r2	sternoclavicular_r3	unrotscap_r3	unrotscap_r2	acromioclavicular_r2	acromioclavicular_r3	acromioclavicular_r1	unrothum_r1	unrothum_r3	unrothum_r2	elv_angle	shoulder_elv	shoulder1_r2	shoulder_rot	elbow_flexion	pro_sup	deviation	flexion	proximal_distal_r1	proximal_distal_r3	cmc_flexion	cmc_abduction	mp_flexion	ip_flexion	mcp2_flexion	mcp2_abduction	pm2_flexion	md2_flexion	mcp3_flexion	mcp3_abduction	pm3_flexion	md3_flexion	mcp4_flexion	mcp4_abduction	pm4_flexion	md4_flexion	mcp5_flexion	mcp5_abduction	pm5_flexion	md5_flexion	bicpt_tx	bicpt_ty	bicpt_tz	bicpt2_tx	bicpt2_ty	bicpt2_tz	ptpt_tx	ptpt_ty	ptpt_tz	FCUpt_tx	FCUpt_ty	FCUpt_tz	EDCpt_tx	EDCpt_ty	EDCpt_tz	APLpt_tx	APLpt_ty	APLpt_tz	FPLpt_tx	FPLpt_ty	FPLpt_tz	FPLpt2_tx	FPLpt2_ty	FPLpt2_tz	PEC1pt2_tx	PEC1pt2_ty	PEC1pt2_tz	PEC1pt3_tx	PEC1pt3_ty	PEC1pt3_tz	PEC2pt2_tx	PEC2pt2_ty	PEC2pt2_tz	PEC2pt3_tx	PEC2pt3_ty	PEC2pt3_tz	PEC3pt2_tx	PEC3pt2_ty	PEC3pt2_tz	PEC3pt3_tx	PEC3pt3_ty	PEC3pt3_tz	DELT2pt2a_tx	DELT2pt2a_ty	DELT2pt2a_tz	DELT2pt2_tx	DELT2pt2_ty	DELT2pt2_tz	LAT1pt2_tx	LAT1pt2_ty	LAT1pt2_tz	LAT1pt3_tx	LAT1pt3_ty	LAT1pt3_tz	LAT2pt2_tx	LAT2pt2_ty	LAT2pt2_tz	LAT2pt3_tx	LAT2pt3_ty	LAT2pt3_tz	LAT3pt2_tx	LAT3pt2_ty	LAT3pt2_tz	LAT3pt3_tx	LAT3pt3_ty	LAT3pt3_tz
      0.00000000	     -0.33122778	      0.14029246	     -0.14029246	      0.33122778	     -0.06706689	      0.54201100	      0.24363021	     -0.24363021	     -0.54201100	      0.06706689	     96.85549189	     78.42112191	     -1.69044723	    -13.14931352	     29.97198800	     40.55341726	      0.27866263	     -0.73514802	      0.31462508	     -0.36757401	      7.60171712	     -5.88079572	    -22.54660753	     -8.29384117	     31.17688703	      7.78158653	     37.23292043	      7.53200675	     40.80847498	      1.89291630	     21.20766423	     19.94571192	     46.77944599	     -8.41122925	     24.48991089	     24.22442073	     48.16515783	    -12.98447246	     27.61939410	      5.26604946	      0.00089138	     -0.03103525	     -0.00485333	      0.01657509	     -0.01834204	     -0.00741074	      0.00455356	     -0.06683755	     -0.00331680	      0.00783600	     -0.18348351	     -0.00039023	     -0.00486640	      0.00140280	      0.00014236	      0.00029957	      0.00011983	      0.00059913	      0.00038344	      0.00115033	      0.00064706	      0.00003560	     -0.00015794	     -0.00018953	      0.00257047	      0.00901844	      0.00627370	     -0.00840849	      0.02030237	     -0.01925676	      0.00257047	      0.00901844	      0.00627370	      0.00056638	      0.01882109	     -0.00988978	      0.00403234	      0.00501504	      0.01617023	      0.00000000	      0.00822812	      0.00000000	     -0.00736288	     -0.03402608	     -0.00678686	      0.00950918	     -0.00023146	     -0.00131022	     -0.00091491	      0.01533570	     -0.00627370	      0.00252690	      0.02213220	     -0.01829828	     -0.00614299	      0.01328803	     -0.00562019	     -0.01280879	      0.02805736	     -0.03141204	     -0.02404916	      0.01485646	     -0.00753715	     -0.01594564	      0.03241409	     -0.03925416
      0.03333333	     -0.32539744	      0.13782300	     -0.13782300	      0.32539744	     -0.06588636	      0.53247040	      0.23934178	     -0.23934178	     -0.53247040	      0.06588636	     97.93655911	     77.04073524	     -1.70931541	    -19.20068654	     30.06258263	     46.19451807	      0.23916647	     -0.73807631	      0.27776416	     -0.36903816	      8.23633744	     -6.80241614	    -23.02370891	     -6.69186941	     31.24752182	      8.03864874	     37.69774909	      4.00529330	     41.24745369	      2.06935383	     18.70230522	     18.99995922	     46.90817817	     -7.86475088	     22.93303852	     25.38980796	     46.63918594	    -13.03291260	     29.78737729	      5.34004050	      0.00089438	     -0.03104563	     -0.00485500	      0.01654210	     -0.01836665	     -0.00678186	      0.00413675	     -0.06710707	     -0.00377122	      0.00840981	     -0.18336076	     -0.00041595	     -0.00554333	      0.00163815	      0.00009156	      0.00029896	      0.00011958	      0.00059792	      0.00038267	      0.00114801	      0.00064576	      0.00003481	     -0.00016824	     -0.00020189	      0.00252523	      0.00885969	      0.00616326	     -0.00826049	      0.01994501	     -0.01891780	      0.00252523	      0.00885969	      0.00616326	      0.00055641	      0.01848979	     -0.00971570	      0.00398088	      0.00492676	      0.01604759	      0.00000000	      0.00793891	      0.00000000	     -0.00723328	     -0.03342715	     -0.00654687	      0.01331074	     -0.00040751	     -0.00302578	     -0.00089881	      0.01506576	     -0.00616326	      0.00248243	      0.02174263	     -0.01797619	     -0.00603486	      0.01305414	     -0.00552126	     -0.01258333	      0.02756349	     -0.03085912	     -0.02362585	      0.01459495	     -0.00740448	     -0.01566496	      0.03184353	     -0.03856320
      0.06666667	     -0.32604522	      0.13809737	     -0.13809737	      0.32604522	     -0.06601752	      0.53353041	      0.23981825	     -0.23981825	     -0.53353041	      0.06601752	     97.84965797	     77.19410316	     -1.70779870	    -18.64254326	     29.92603806	     45.50527153	      0.21936769	     -0.74836385	      0.25832455	     -0.37418192	      8.80494512	     -8.38980663	    -24.18265067	     -5.87340404	     31.08186519	      7.57050314	     37.65669425	      2.59293450	     40.24263902	      1.73379416	     18.99748269	     18.65236115	     46.33951148	     -7.84688342	     22.17734002	     24.77985625	     45.90913217	    -13.01185710	     30.08947257	      5.40098624	      0.00088986	     -0.03102998	     -0.00485248	      0.01655005	     -0.01832956	     -0.00686110	      0.00418767	     -0.06707414	     -0.00371569	      0.00833917	     -0.18337624	     -0.00041410	     -0.00546062	      0.00160886	      0.00009869	      0.00029667	      0.00011867	      0.00059334	      0.00037974	      0.00113921	      0.00064080	      0.00003414	     -0.00017708	     -0.00021249	      0.00253025	      0.00887733	      0.00617553	     -0.00827693	      0.01998471	     -0.01895546	      0.00253025	      0.00887733	      0.00617553	      0.00055751	      0.01852660	     -0.00973504	      0.00398663	      0.00493657	      0.01606144	      0.00000000	      0.00797078	      0.00000000	     -0.00724767	     -0.03349369	     -0.00657332	      0.01298069	     -0.00039061	     -0.00284156	     -0.00090060	      0.01509575	     -0.00617553	      0.00248737	      0.02178591	     -0.01801197	     -0.00604688	      0.01308012	     -0.00553225	     -0.01260838	      0.02761836	     -0.03092055	     -0.02367288	      0.01462401	     -0.00741922	     -0.01569615	      0.03190692	     -0.03863997
      0.10000000	     -0.32611773	      0.13812808	     -0.13812808	      0.32611773	     -0.06603221	      0.53364906	      0.23987158	     -0.23987158	     -0.53364906	      0.06603221	     97.93642255	     77.21127087	     -1.70931303	    -18.58468293	     29.73439217	     45.46916818	      0.21690262	     -0.74686773	      0.25585992	     -0.37343386	      8.89411146	     -8.46551493	    -24.16102080	     -5.84752405	     31.16895902	      7.58845934	     37.68008196	      2.57533150	     40.24994476	      1.74034896	     19.00132829	     18.64561529	     46.33073095	     -7.83381756	     22.16056991	     24.76766075	     45.84167743	    -13.02400803	     30.08016203	      5.39710845	      0.00088352	     -0.03100802	     -0.00484894	      0.01655041	     -0.01827749	     -0.00686522	      0.00419034	     -0.06707241	     -0.00371279	      0.00833548	     -0.18337705	     -0.00041398	     -0.00545629	      0.00160734	      0.00009905	      0.00029701	      0.00011880	      0.00059402	      0.00038017	      0.00114052	      0.00064154	      0.00003403	     -0.00017841	     -0.00021409	      0.00253082	      0.00887930	      0.00617691	     -0.00827877	      0.01998916	     -0.01895967	      0.00253082	      0.00887930	      0.00617691	      0.00055764	      0.01853072	     -0.00973721	      0.00398727	      0.00493767	      0.01606299	      0.00000000	      0.00797435	      0.00000000	     -0.00724929	     -0.03350114	     -0.00657629	      0.01294614	     -0.00038887	     -0.00282286	     -0.00090080	      0.01509911	     -0.00617691	      0.00248792	      0.02179075	     -0.01801598	     -0.00604822	      0.01308303	     -0.00553348	     -0.01261118	      0.02762450	     -0.03092743	     -0.02367814	      0.01462726	     -0.00742087	     -0.01569964	      0.03191402	     -0.03864856
      0.13333333	     -0.32592575	      0.13804676	     -0.13804676	      0.32592575	     -0.06599333	      0.53333491	      0.23973037	     -0.23973037	     -0.53333491	      0.06599333	     97.93866905	     77.16581765	     -1.70935224	    -18.57313396	     29.72347808	     45.46850012	      0.21679574	     -0.74677688	      0.25575218	     -0.37338844	      8.89641465	     -8.46801633	    -24.16047121	     -5.84697472	     31.17576473	      7.58879144	     37.68113374	      2.57509945	     40.25379335	      1.74067098	     19.00182264	     18.64559208	     46.33211561	     -7.83342533	     22.16031866	     24.76737576	     45.84023705	    -13.02405441	     30.08018210	      5.39708022	      0.00088316	     -0.03100676	     -0.00484874	      0.01655042	     -0.01827453	     -0.00686529	      0.00419039	     -0.06707238	     -0.00371273	      0.00833541	     -0.18337706	     -0.00041398	     -0.00545621	      0.00160731	      0.00009906	      0.00029703	      0.00011881	      0.00059406	      0.00038020	      0.00114060	      0.00064159	      0.00003403	     -0.00017844	     -0.00021413	      0.00252933	      0.00887408	      0.00617327	     -0.00827390	      0.01997739	     -0.01894851	      0.00252933	      0.00887408	      0.00617327	      0.00055731	      0.01851981	     -0.00973148	      0.00398557	      0.00493476	      0.01605889	      0.00000000	      0.00796490	      0.00000000	     -0.00724502	     -0.03348142	     -0.00656844	      0.01293926	     -0.00038852	     -0.00281912	     -0.00090027	      0.01509022	     -0.00617327	      0.00248646	      0.02177793	     -0.01800537	     -0.00604466	      0.01307533	     -0.00553022	     -0.01260376	      0.02760824	     -0.03090922	     -0.02366420	      0.01461865	     -0.00741650	     -0.01569040	      0.03189523	     -0.03862581
      0.16666667	     -0.32803788	      0.13894136	     -0.13894136	      0.32803788	     -0.06642100	      0.53679115	      0.24128393	     -0.24128393	     -0.53679115	      0.06642100	     97.59601736	     77.66588479	     -1.70337184	    -16.61564839	     29.50446405	     43.07231420	      0.20117533	     -0.76823106	      0.23989709	     -0.38411553	     10.14096981	    -10.43312525	    -27.03072436	     -1.50851239	     31.49197139	      7.39415273	     43.76177310	    -15.70278048	     39.63379647	      1.58543806	     20.43143585	     17.74380091	     45.83861493	     -7.86539727	     22.08610301	     23.91461283	     43.96433970	    -13.19358890	     32.57007787	      5.39188745	      0.00087592	     -0.03098166	     -0.00484470	      0.01656935	     -0.01821503	     -0.00713544	      0.00436744	     -0.06695789	     -0.00351971	      0.00809101	     -0.18342981	     -0.00040467	     -0.00516867	      0.00150668	      0.00012181	      0.00029176	      0.00011670	      0.00058352	      0.00037345	      0.00112036	      0.00063020	      0.00003251	     -0.00019639	     -0.00023567	      0.00254572	      0.00893158	      0.00621328	     -0.00832752	      0.02010685	     -0.01907131	      0.00254572	      0.00893158	      0.00621328	      0.00056092	      0.01863983	     -0.00979454	      0.00400427	      0.00496674	      0.01610368	      0.00000000	      0.00806923	      0.00000000	     -0.00729197	     -0.03369839	     -0.00665502	      0.01174673	     -0.00033034	     -0.00221613	     -0.00090610	      0.01518801	     -0.00621328	      0.00250257	      0.02191906	     -0.01812206	     -0.00608383	      0.01316006	     -0.00556606	     -0.01268544	      0.02778715	     -0.03110953	     -0.02381756	      0.01471338	     -0.00746456	     -0.01579208	      0.03210193	     -0.03887612
